<svg width="20" height="20" viewBox="0 0 20 20" fill="none" xmlns="http://www.w3.org/2000/svg">
<path d="M9.75718 17.8651C9.90819 17.949 10.0918 17.949 10.2428 17.8651L16.2428 14.5318C16.4016 14.4436 16.5 14.2763 16.5 14.0947V12.3498C16.5 11.9685 16.0904 11.7275 15.7572 11.9127L10.2428 14.9762C10.0918 15.0601 9.90819 15.0601 9.75718 14.9762L4.24282 11.9127C3.90956 11.7275 3.5 11.9685 3.5 12.3498V14.0947C3.5 14.2763 3.59845 14.4436 3.75718 14.5318L9.75718 17.8651Z" fill="black"/>
<path d="M9.76758 9.87798C9.91311 9.95438 10.0869 9.95438 10.2324 9.87798L17.7324 5.94048C17.8969 5.8541 18 5.68361 18 5.49778V3.82722C18 3.45119 17.6005 3.20973 17.2676 3.38452L10.2324 7.07798C10.0869 7.15438 9.91311 7.15438 9.76758 7.07798L2.73242 3.38452C2.39948 3.20973 2 3.45119 2 3.82722V5.49778C2 5.68361 2.10305 5.8541 2.26758 5.94048L9.76758 9.87798Z" fill="black" fill-opacity="0.6"/>
</svg>
