<svg width="20" height="20" viewBox="0 0 20 20" fill="none" xmlns="http://www.w3.org/2000/svg">
<path d="M9.75718 2.1349C9.90819 2.05101 10.0918 2.05101 10.2428 2.1349L16.2428 5.46823C16.4016 5.55642 16.5 5.72373 16.5 5.90531V7.65024C16.5 8.03148 16.0904 8.27247 15.7572 8.08732L10.2428 5.02379C10.0918 4.93989 9.90819 4.93989 9.75718 5.02379L4.24282 8.08732C3.90956 8.27247 3.5 8.03149 3.5 7.65024V5.90531C3.5 5.72373 3.59845 5.55642 3.75718 5.46823L9.75718 2.1349Z" fill="black"/>
<path d="M9.76758 10.122C9.91311 10.0456 10.0869 10.0456 10.2324 10.122L17.7324 14.0595C17.8969 14.1459 18 14.3164 18 14.5022V16.1728C18 16.5488 17.6005 16.7903 17.2676 16.6155L10.2324 12.922C10.0869 12.8456 9.91311 12.8456 9.76758 12.922L2.73242 16.6155C2.39948 16.7903 2 16.5488 2 16.1728V14.5022C2 14.3164 2.10305 14.1459 2.26758 14.0595L9.76758 10.122Z" fill="black" fill-opacity="0.6"/>
</svg>
