<svg width="20" height="20" viewBox="0 0 20 20" fill="none" xmlns="http://www.w3.org/2000/svg">
<path d="M13.0766 0.361087C15.037 0.901929 16.3668 1.6556 17.9056 2.97094C18.349 3.34992 18.3399 4.03196 17.9041 4.42212L12.0144 9.69508C11.6486 10.0225 11.1093 9.68585 11.2817 9.22655C11.2966 9.18662 11.3111 9.14873 11.325 9.1129C11.4378 8.82226 11.4347 8.49435 11.2939 8.21696L10.0778 5.82197L11.9296 0.959665C12.1061 0.496121 12.5991 0.229333 13.0766 0.361087Z" fill="white"/>
<path d="M9.08491 12.1497L10.5411 11.4153C11.1521 11.1072 11.8842 11.4952 11.9722 12.1737L12.4359 15.7485C12.4493 15.8516 12.4788 15.952 12.5233 16.0459L13.7959 18.7311C14.0753 19.3205 13.6454 19.9999 12.9932 19.9999C12.8258 19.9999 12.6618 19.9526 12.5201 19.8635L10.0897 18.3344C9.99071 18.2722 9.90351 18.1929 9.83213 18.1003L7.1527 14.6242C6.79274 14.1572 6.91691 13.4813 7.41932 13.1727L9.08491 12.1497Z" fill="white"/>
<path d="M4.31718 10.0772L5.0623 9.34346C5.4486 8.96305 6.0687 8.96304 6.45501 9.34346L7.64256 10.5129C8.12932 10.9923 7.9975 11.8086 7.38461 12.1104L6.39111 12.5996C6.01238 12.7861 5.55714 12.7126 5.25636 12.4164L4.31718 11.4915C3.9224 11.1027 3.9224 10.466 4.31718 10.0772Z" fill="white"/>
<path d="M9.84472 7.60358L7.97348 4.83946C7.59302 4.27746 6.77332 4.25459 6.36212 4.79451L5.52934 5.88797C5.24414 6.26246 5.26124 6.78578 5.57029 7.14085L8.03784 9.97582C8.57798 10.5964 9.59526 10.328 9.75901 9.52178L9.99547 8.35746C10.0485 8.09612 9.99421 7.82441 9.84472 7.60358Z" fill="white"/>
<path d="M0.490558 7.01383C0.249225 6.77618 0.315242 6.37554 0.6205 6.22524L1.11735 5.9806C1.30985 5.88581 1.54234 5.92297 1.69452 6.07283L3.34433 7.69752C3.49651 7.84738 3.53424 8.07632 3.43801 8.26588L3.18963 8.75514C3.03702 9.05576 2.63018 9.12079 2.38884 8.88314L0.490558 7.01383Z" fill="white"/>
<path d="M1.69434 3.23772C1.54216 3.08785 1.50443 2.8589 1.60068 2.66933L1.84911 2.18004C2.00174 1.87943 2.40857 1.81442 2.64989 2.05207L4.7839 4.15359C4.93608 4.30345 4.97381 4.53239 4.87757 4.72196L4.62915 5.21126C4.47653 5.51188 4.06969 5.5769 3.82836 5.33924L1.69434 3.23772Z" fill="white"/>
</svg>
