<svg width="20" height="20" viewBox="0 0 20 20" fill="none" xmlns="http://www.w3.org/2000/svg">
<path fill-rule="evenodd" clip-rule="evenodd" d="M9.00401 0.196533C8.76615 -0.0655109 8.3805 -0.0655108 8.14264 0.196533L5.00403 3.65425H8.4495L9.86538 2.09442C10.1032 1.83238 10.1032 1.40752 9.86538 1.14548L9.00401 0.196533Z" fill="white"/>
<path fill-rule="evenodd" clip-rule="evenodd" d="M5.55948 9.50146C5.33144 9.50146 5.12962 9.65504 5.08869 9.87937C5.03307 10.1843 5.00403 10.4983 5.00403 10.8191C5.00403 13.7244 7.38668 16.0796 10.3258 16.0796C11.8532 16.0796 13.2303 15.4435 14.2008 14.4248C14.3982 14.2176 14.3211 13.8872 14.1176 13.686L14.0262 13.5957C13.8091 13.3811 13.4532 13.411 13.2388 13.6282C12.4997 14.3769 11.4677 14.8418 10.3258 14.8418C8.07824 14.8418 6.25621 13.0408 6.25621 10.8191C6.25621 10.6035 6.27336 10.392 6.30638 10.1856C6.36094 9.84467 6.11815 9.50146 5.77286 9.50146H5.55948Z" fill="white"/>
<path d="M16.0631 3.3915C16.3177 3.13308 16.752 3.15497 17.0332 3.4404L18.0514 4.47403C18.3326 4.75946 18.3541 5.20034 18.0996 5.45876L13.4212 10.2079C13.1666 10.4663 12.7323 10.4444 12.4512 10.159L11.4329 9.12538C11.1518 8.83995 11.1302 8.39907 11.3848 8.14065L16.0631 3.3915Z" fill="white"/>
<rect width="1.45092" height="2.90184" rx="0.501113" transform="matrix(0.701777 0.712397 -0.701777 0.712397 7.16418 16.8103)" fill="white"/>
<rect width="1.45092" height="5.07823" rx="0.501113" transform="matrix(0.701777 0.712397 -0.701777 0.712397 4.28394 15.3486)" fill="white"/>
<rect width="1.45092" height="5.07823" rx="0.501113" transform="matrix(0.701777 0.712397 -0.701777 0.712397 3.5639 11.6941)" fill="white"/>
<path d="M17.5111 7.76823C17.7611 7.51451 18.1916 7.54022 18.4728 7.82565L19.491 8.85929C19.7722 9.14472 19.7975 9.58178 19.5476 9.83549L16.3798 13.0512C16.1298 13.305 15.6993 13.2792 15.4181 12.9938L14.3999 11.9602C14.1187 11.6748 14.0934 11.2377 14.3433 10.984L17.5111 7.76823Z" fill="white"/>
<path d="M4.93193 8.03979C4.57405 8.03979 4.28394 7.71257 4.28394 7.30891V5.84713C4.28394 5.44347 4.57405 5.11624 4.93193 5.11624L10.1159 5.11624C10.4737 5.11624 10.7639 5.44347 10.7639 5.84713V7.30891C10.7639 7.71257 10.4737 8.03979 10.1159 8.03979H4.93193Z" fill="white"/>
<path fill-rule="evenodd" clip-rule="evenodd" d="M13.9669 0.909101C13.7113 0.671575 13.297 0.671576 13.0415 0.909102L10.0439 3.69534H10.3414C11.2348 3.69534 11.9877 4.29662 12.2168 5.11628L14.8923 2.62942C15.1478 2.39189 15.1478 2.00678 14.8923 1.76926L13.9669 0.909101Z" fill="white"/>
<path fill-rule="evenodd" clip-rule="evenodd" d="M8.39395 9.50146C8.18124 9.50146 7.98719 9.635 7.94325 9.84312C7.90429 10.0277 7.88379 10.2191 7.88379 10.4153C7.88379 11.929 9.10355 13.156 10.6082 13.156C11.4901 13.156 12.2741 12.7345 12.7721 12.0808C12.9699 11.8211 12.7793 11.4743 12.497 11.3104C12.3623 11.2321 12.2354 11.135 12.1201 11.019C12.0796 10.9782 12.0099 10.9936 11.9862 11.046C11.7478 11.5722 11.2205 11.9379 10.6082 11.9379C9.77228 11.9379 9.09464 11.2562 9.09464 10.4153C9.09464 10.0112 8.82206 9.50146 8.41795 9.50146H8.39395Z" fill="white"/>
</svg>
