<svg width="20" height="20" viewBox="0 0 20 20" fill="none" xmlns="http://www.w3.org/2000/svg">
<path d="M10 18.9279V0.844033C10 0.413406 10.4022 0.0957533 10.8211 0.195495L15.951 1.4169C17.1522 1.70291 18 2.77496 18 4.00979V12.517C18 15.0407 13.7583 17.9685 10.9491 19.5053C10.5157 19.7424 10 19.4219 10 18.9279Z" fill="white"/>
<path fill-rule="evenodd" clip-rule="evenodd" d="M8 0.599096C8 0.448625 7.89088 0.309283 7.74445 0.343944L3.30384 1.20943C2.53544 1.39132 2 2.01367 2 2.72722V13.2831C2 15.2847 4.61911 17.5367 7.25757 19.1691C7.58468 19.3714 8 19.132 8 18.7474V17.8763C8 17.7038 7.91059 17.5441 7.76653 17.4492C7.34134 17.169 6.97915 16.8905 6.67264 16.6548C6.57832 16.5823 6.48927 16.5138 6.40528 16.4506C5.55652 15.8117 4.85513 15.1732 4.37916 14.5771C3.8885 13.9626 3.74992 13.5346 3.74992 13.2831V3.09659C3.74992 2.88078 3.91438 2.693 4.14794 2.64212L7.58221 2.06966C7.8233 2.02947 8 1.82088 8 1.57646V0.599096Z" fill="white"/>
</svg>
